<svg width="1440" height="1024" viewBox="0 0 1440 1024" fill="none" xmlns="http://www.w3.org/2000/svg">
<g clip-path="url(#clip0_84_4501)">
<rect width="1440" height="1024" fill="white"/>
<g opacity="0.1">
<path fill-rule="evenodd" clip-rule="evenodd" d="M1991.52 -244.277C1998.96 -242.634 2003.67 -235.263 2002.03 -227.813C1974.06 -101.009 1877.16 80.9108 1740.08 291.031C1602.65 501.685 1423.71 742.333 1230.03 987.072C842.633 1476.57 395.64 1983.18 102.198 2300.24C97.0166 2305.84 88.2771 2306.17 82.6783 2300.99C77.0794 2295.81 76.7413 2287.07 81.9231 2281.47C375.022 1964.78 821.524 1458.73 1208.36 969.927C1401.79 725.514 1580.16 485.599 1716.94 275.937C1854.07 65.7418 1948.28 -112.407 1975.05 -233.764C1976.69 -241.214 1984.07 -245.921 1991.52 -244.277Z" fill="#D0D5DD"/>
<path fill-rule="evenodd" clip-rule="evenodd" d="M-133.497 -559.979C-128.538 -565.776 -119.819 -566.456 -114.021 -561.497C124.501 -357.477 505.377 16.3857 873.651 475.532C1241.84 934.577 1598.11 1479.69 1786.54 2026.18C1789.02 2033.39 1785.19 2041.25 1777.98 2043.74C1770.77 2046.23 1762.91 2042.4 1760.42 2035.19C1573.46 1492.96 1219.36 950.704 852.101 492.817C484.919 35.0328 105.248 -337.591 -131.979 -540.503C-137.776 -545.462 -138.456 -554.181 -133.497 -559.979Z" fill="#D0D5DD"/>
</g>
</g>
<defs>
<clipPath id="clip0_84_4501">
<rect width="1440" height="1024" fill="white"/>
</clipPath>
</defs>
</svg>
