<svg width="26" height="25" viewBox="0 0 26 25" fill="none" xmlns="http://www.w3.org/2000/svg">
<path d="M9.59842 21.7858C7.09515 21.7858 4.76167 21.0577 2.79761 19.8014C4.46516 19.9093 7.40802 19.6509 9.23847 17.905C6.48487 17.7786 5.24305 15.6667 5.08107 14.7642C5.31504 14.8545 6.43088 14.9628 7.06079 14.7101C3.89324 13.9158 3.40731 11.1361 3.5153 10.2877C4.10921 10.7029 5.11707 10.8473 5.51301 10.8112C2.56144 8.69929 3.62328 5.52244 4.14521 4.83652C6.26336 7.77105 9.43782 9.4192 13.365 9.51087C13.291 9.18611 13.2519 8.84801 13.2519 8.50074C13.2519 6.00851 15.2663 3.98816 17.7512 3.98816C19.0496 3.98816 20.2195 4.53969 21.0407 5.4219C21.9083 5.2186 23.214 4.74268 23.8524 4.33112C23.5306 5.48634 22.5289 6.45003 21.923 6.80721C21.928 6.81936 21.9181 6.795 21.923 6.80721C22.4552 6.7267 23.8954 6.44993 24.4643 6.06395C24.1829 6.71294 23.1209 7.792 22.2494 8.3961C22.4116 15.5474 16.9401 21.7858 9.59842 21.7858Z" fill="#101828"/>
</svg>