<svg width="25" height="25" viewBox="0 0 25 25" fill="none" xmlns="http://www.w3.org/2000/svg">
<path d="M18.528 7.34646C17.426 6.86206 16.2477 6.51001 15.0158 6.30957C14.8645 6.56654 14.6878 6.91217 14.5659 7.18713C13.2564 7.00211 11.9589 7.00211 10.6735 7.18713C10.5517 6.91217 10.3709 6.56654 10.2183 6.30957C8.98507 6.51001 7.80542 6.86335 6.70345 7.34903C4.48074 10.5047 3.8782 13.5819 4.17947 16.6155C5.65369 17.6498 7.08237 18.2781 8.48696 18.6892C8.83376 18.2408 9.14306 17.7642 9.40952 17.2618C8.90205 17.0806 8.416 16.8571 7.95673 16.5975C8.07857 16.5127 8.19774 16.424 8.3129 16.3328C11.1141 17.5637 14.1575 17.5637 16.9252 16.3328C17.0417 16.424 17.1609 16.5127 17.2814 16.5975C16.8208 16.8583 16.3334 17.0819 15.8259 17.263C16.0924 17.7642 16.4003 18.2421 16.7484 18.6905C18.1544 18.2794 19.5844 17.6511 21.0586 16.6155C21.4121 13.0988 20.4548 10.0498 18.528 7.34646ZM9.79113 14.7499C8.95025 14.7499 8.26068 14.0123 8.26068 13.1142C8.26068 12.2161 8.93552 11.4773 9.79113 11.4773C10.6467 11.4773 11.3363 12.2148 11.3216 13.1142C11.3229 14.0123 10.6467 14.7499 9.79113 14.7499ZM15.447 14.7499C14.6061 14.7499 13.9165 14.0123 13.9165 13.1142C13.9165 12.2161 14.5914 11.4773 15.447 11.4773C16.3026 11.4773 16.9922 12.2148 16.9774 13.1142C16.9774 14.0123 16.3026 14.7499 15.447 14.7499Z" fill="#101828"/>
</svg>