<svg width="16" height="17" viewBox="0 0 16 17" fill="none" xmlns="http://www.w3.org/2000/svg">
<path d="M12.8213 1.31778L9.4828 6.27778C9.25194 6.61556 9.69589 7.02444 10.0155 6.74L13.3008 3.87778C13.3896 3.80667 13.5139 3.86 13.5139 3.98444V12.9267C13.5139 13.0511 13.3541 13.1044 13.283 13.0156L3.33851 1.10444C3.01887 0.713333 2.55716 0.5 2.04218 0.5H1.68701C0.763596 0.5 0 1.26444 0 2.20667V14.7933C0 15.7356 0.763596 16.5 1.70477 16.5C2.29079 16.5 2.84129 16.1978 3.16093 15.6822L6.49944 10.7222C6.7303 10.3844 6.28635 9.97556 5.9667 10.26L2.68147 13.1044C2.59267 13.1756 2.46837 13.1222 2.46837 12.9978V4.07333C2.46837 3.94889 2.62819 3.89556 2.69922 3.98444L12.6437 15.8956C12.9634 16.2867 13.4428 16.5 13.9401 16.5H14.2952C15.2364 16.5 16 15.7356 16 14.7933V2.20667C16 1.26444 15.2364 0.5 14.2952 0.5C13.6915 0.5 13.141 0.802222 12.8213 1.31778Z" fill="#344054"/>
</svg>
