<svg width="41" height="53" viewBox="0 0 41 53" fill="none" xmlns="http://www.w3.org/2000/svg">
<path d="M40.0802 5.85463C40.5 6.37472 36.2235 13.8162 34.3256 17.1661C32.4278 20.516 30.233 23.6525 28.1398 26.8476C27.8164 27.3456 27.79 27.7075 28.0747 28.2453C30.4974 32.8067 32.8895 37.3869 35.2613 41.9086C35.3933 42.1588 35.5014 42.3647 35.6031 42.6786L36.1116 43.8294C36.9964 46.2189 37.5355 47.5957 34.6348 49.1127C34.6348 49.1127 34 49.2984 32.857 48.9558C31.5 48.5489 31.4331 48.328 31.4331 48.328C29.399 45.0848 29.0104 44.2813 27.91 42.2078C26.4861 39.4877 24.9991 36.7948 23.4776 33.9784C23.4426 33.9137 23.3932 33.8583 23.3335 33.8168C23.2739 33.7753 23.2055 33.7488 23.1341 33.7394C23.0626 33.7301 22.99 33.7381 22.9222 33.7629C22.8543 33.7877 22.793 33.8286 22.7433 33.8822C22.3126 34.3262 21.9052 34.7935 21.5228 35.282C19.9728 37.3939 18.4424 39.5205 16.9318 41.6617C14.8732 44.591 12.2919 47.0035 9.65771 49.3575C8.5125 50.3828 7.32252 51.3641 6.09187 52.2868C5.72573 52.5588 5.07483 52.7597 4.68631 52.6153C2.83118 51.9311 1.87107 49.5061 3.31327 48.0874C4.44018 46.9805 6.16105 45.0304 7.17812 43.8315C9.86927 40.7055 12.5584 37.5752 15.1926 34.399C16.7446 32.5284 18.1807 30.5574 19.6677 28.6177C19.7272 28.5406 19.7617 28.4461 19.766 28.3477C19.7704 28.2493 19.7445 28.1519 19.6921 28.0695C19.5761 27.8875 19.4765 27.7327 19.3748 27.5799C17.2633 24.4664 15.0217 21.4366 13.069 18.2206C10.091 13.2701 6.19767 9.08527 2.65218 4.60965C1.82022 3.56346 0.978086 2.51727 0.211218 1.41667C-0.246462 0.755474 0.0789877 0.161234 0.809241 0.205174C1.85885 0.265853 3.06915 0.2805 3.90518 0.820337C6.6777 2.60724 9.50311 4.39832 11.9644 6.59324C16.7589 10.8722 21.0204 15.6889 24.3157 21.3278C24.3549 21.3939 24.4097 21.4487 24.4749 21.4872C24.5402 21.5257 24.6139 21.5466 24.6891 21.5481C24.7643 21.5495 24.8387 21.5315 24.9053 21.4955C24.9719 21.4596 25.0287 21.407 25.0703 21.3425C26.7159 18.7751 28.3249 16.2998 29.8892 13.8099C31.2846 11.5899 32.7593 9.41587 33.9574 7.08286C34.7711 5.52403 36.7714 4.60965 37.4806 4.60965C38.1897 4.60965 40.0802 4.31167 40.0802 5.85463Z" fill="#101828"/>
</svg>
